<svg width="22" height="20" viewBox="0 0 22 20" fill="none" xmlns="http://www.w3.org/2000/svg">
<path d="M2.08168 11.9445C1.55297 10.9941 1.28862 10.5188 1.28862 10C1.28862 9.48116 1.55297 9.00594 2.08168 8.0555L3.43094 5.63L4.85685 3.24877C5.4156 2.31567 5.69498 1.84912 6.14431 1.5897C6.59364 1.33028 7.13737 1.32161 8.22483 1.30426L11 1.26L13.7752 1.30426C14.8626 1.32161 15.4064 1.33028 15.8557 1.5897C16.305 1.84912 16.5844 2.31567 17.1431 3.24877L18.5691 5.63L19.9183 8.0555C20.447 9.00594 20.7114 9.48116 20.7114 10C20.7114 10.5188 20.447 10.9941 19.9183 11.9445L18.5691 14.37L17.1431 16.7512C16.5844 17.6843 16.305 18.1509 15.8557 18.4103C15.4064 18.6697 14.8626 18.6784 13.7752 18.6957L11 18.74L8.22483 18.6957C7.13737 18.6784 6.59364 18.6697 6.14431 18.4103C5.69498 18.1509 5.4156 17.6843 4.85685 16.7512L3.43094 14.37L2.08168 11.9445Z" stroke="white" stroke-width="2"/>
<ellipse cx="11.0002" cy="10" rx="3" ry="3" stroke="white" stroke-width="2"/>
</svg>
