<svg width="21" height="20" viewBox="0 0 21 20" fill="none" xmlns="http://www.w3.org/2000/svg">
<path d="M9.12415 0C4.454 0 0.666626 3.76356 0.666626 8.40434C0.666626 13.0483 4.454 16.8118 9.12415 16.8118C10.8549 16.8118 12.4622 16.293 13.8038 15.4064L18.4961 20L20.6666 17.8431L16.006 13.2809C16.9963 11.9069 17.5817 10.2248 17.5817 8.40748C17.5848 3.76356 13.7975 0 9.12415 0ZM9.24122 14.3154C5.95693 14.3154 3.29279 11.6711 3.29279 8.40434C3.29279 5.1407 5.95693 2.49332 9.24122 2.49332C12.5255 2.49332 15.1896 5.13756 15.1896 8.40434C15.1865 11.6711 12.5255 14.3154 9.24122 14.3154Z" fill="#08164B"/>
</svg>
