<svg width="20" height="20" viewBox="0 0 20 20" fill="none" xmlns="http://www.w3.org/2000/svg">
<path d="M8.45752 0C3.78737 0 0 3.76356 0 8.40434C0 13.0483 3.78737 16.8118 8.45752 16.8118C10.1883 16.8118 11.7956 16.293 13.1372 15.4064L17.8295 20L20 17.8431L15.3393 13.2809C16.3297 11.9069 16.915 10.2248 16.915 8.40748C16.9182 3.76356 13.1308 0 8.45752 0ZM8.57459 14.3154C5.2903 14.3154 2.62617 11.6711 2.62617 8.40434C2.62617 5.1407 5.2903 2.49332 8.57459 2.49332C11.8589 2.49332 14.523 5.13756 14.523 8.40434C14.5199 11.6711 11.8589 14.3154 8.57459 14.3154Z" fill="white"/>
</svg>
