<svg width="24" height="15" viewBox="0 0 24 15" fill="none" xmlns="http://www.w3.org/2000/svg">
<rect x="0.260864" width="23" height="15" fill="white"/>
<path d="M23.2609 0H0.260864V1.15202H23.2609V0Z" fill="#B01820"/>
<path d="M23.2609 13.8479H0.260864V14.9999H23.2609V13.8479Z" fill="#B01820"/>
<path d="M23.2609 11.5439H0.260864V12.696H23.2609V11.5439Z" fill="#B01820"/>
<path d="M23.2609 9.22809H0.260864V10.3801H23.2609V9.22809Z" fill="#B01820"/>
<path d="M23.2609 6.92401H0.260864V8.07603H23.2609V6.92401Z" fill="#B01820"/>
<path d="M23.2609 4.62006H0.260864V5.77207H23.2609V4.62006Z" fill="#B01820"/>
<path d="M23.2609 2.30408H0.260864V3.4561H23.2609V2.30408Z" fill="#B01820"/>
<path d="M9.46087 0H0.260864V8.07601H9.46087V0Z" fill="#002A70"/>
<path d="M1.02743 0.344482L0.941185 0.665148H0.672852L0.893268 0.867048L0.807018 1.17584L1.02743 0.985813L1.24785 1.18771L1.1616 0.867048L1.38202 0.665148H1.11368L1.02743 0.344482Z" fill="#68D2FF"/>
<path d="M2.56076 0.344482L2.47451 0.665148H2.20618L2.42659 0.867048L2.34034 1.17584L2.56076 0.985813L2.78118 1.18771L2.69493 0.867048L2.91534 0.665148H2.64701L2.56076 0.344482Z" fill="#68D2FF"/>
<path d="M4.09409 0.344482L4.00784 0.665148H3.7395L3.95992 0.867048L3.87367 1.17584L4.09409 0.985813L4.3145 1.18771L4.22825 0.867048L4.44867 0.665148H4.18034L4.09409 0.344482Z" fill="#68D2FF"/>
<path d="M5.62741 0.344482L5.54116 0.665148H5.27283L5.49324 0.867048L5.40699 1.17584L5.62741 0.985813L5.84783 1.18771L5.76158 0.867048L5.98199 0.665148H5.71366L5.62741 0.344482Z" fill="#68D2FF"/>
<path d="M7.16074 0.344482L7.07449 0.665148H6.80615L7.02657 0.867048L6.94032 1.17584L7.16074 0.985813L7.38115 1.18771L7.2949 0.867048L7.51532 0.665148H7.24699L7.16074 0.344482Z" fill="#68D2FF"/>
<path d="M8.47377 1.17584L8.69418 0.985813L8.9146 1.18771L8.82835 0.867048L9.04877 0.665148H8.78043L8.69418 0.344482L8.60793 0.665148H8.3396L8.56002 0.867048L8.47377 1.17584Z" fill="#68D2FF"/>
<path d="M1.02743 1.95966L0.941185 2.28032H0.672852L0.893268 2.48222L0.807018 2.80289L1.02743 2.60099L1.24785 2.80289L1.1616 2.48222L1.38202 2.28032H1.11368L1.02743 1.95966Z" fill="#68D2FF"/>
<path d="M2.56076 1.95966L2.47451 2.28032H2.20618L2.42659 2.48222L2.34034 2.80289L2.56076 2.60099L2.78118 2.80289L2.69493 2.48222L2.91534 2.28032H2.64701L2.56076 1.95966Z" fill="#68D2FF"/>
<path d="M4.09409 1.95966L4.00784 2.28032H3.7395L3.95992 2.48222L3.87367 2.80289L4.09409 2.60099L4.3145 2.80289L4.22825 2.48222L4.44867 2.28032H4.18034L4.09409 1.95966Z" fill="#68D2FF"/>
<path d="M5.62741 1.95966L5.54116 2.28032H5.27283L5.49324 2.48222L5.40699 2.80289L5.62741 2.60099L5.84783 2.80289L5.76158 2.48222L5.98199 2.28032H5.71366L5.62741 1.95966Z" fill="#68D2FF"/>
<path d="M7.16074 1.95966L7.07449 2.28032H6.80615L7.02657 2.48222L6.94032 2.80289L7.16074 2.60099L7.38115 2.80289L7.2949 2.48222L7.51532 2.28032H7.24699L7.16074 1.95966Z" fill="#68D2FF"/>
<path d="M8.69418 1.95966L8.60793 2.28032H8.3396L8.56002 2.48222L8.47377 2.80289L8.69418 2.60099L8.9146 2.80289L8.82835 2.48222L9.04877 2.28032H8.78043L8.69418 1.95966Z" fill="#68D2FF"/>
<path d="M1.02743 3.57489L0.941185 3.89555H0.672852L0.893268 4.09745L0.807018 4.41812L1.02743 4.21622L1.24785 4.41812L1.1616 4.09745L1.38202 3.89555H1.11368L1.02743 3.57489Z" fill="#68D2FF"/>
<path d="M2.56076 3.57489L2.47451 3.89555H2.20618L2.42659 4.09745L2.34034 4.41812L2.56076 4.21622L2.78118 4.41812L2.69493 4.09745L2.91534 3.89555H2.64701L2.56076 3.57489Z" fill="#68D2FF"/>
<path d="M4.09409 3.57489L4.00784 3.89555H3.7395L3.95992 4.09745L3.87367 4.41812L4.09409 4.21622L4.3145 4.41812L4.22825 4.09745L4.44867 3.89555H4.18034L4.09409 3.57489Z" fill="#68D2FF"/>
<path d="M5.62741 3.57489L5.54116 3.89555H5.27283L5.49324 4.09745L5.40699 4.41812L5.62741 4.21622L5.84783 4.41812L5.76158 4.09745L5.98199 3.89555H5.71366L5.62741 3.57489Z" fill="#68D2FF"/>
<path d="M7.16074 3.57489L7.07449 3.89555H6.80615L7.02657 4.09745L6.94032 4.41812L7.16074 4.21622L7.38115 4.41812L7.2949 4.09745L7.51532 3.89555H7.24699L7.16074 3.57489Z" fill="#68D2FF"/>
<path d="M8.69418 3.57489L8.60793 3.89555H8.3396L8.56002 4.09745L8.47377 4.41812L8.69418 4.21622L8.9146 4.41812L8.82835 4.09745L9.04877 3.89555H8.78043L8.69418 3.57489Z" fill="#68D2FF"/>
<path d="M1.02743 5.19006L0.941185 5.51073H0.672852L0.893268 5.71263L0.807018 6.03329L1.02743 5.83139L1.24785 6.03329L1.1616 5.71263L1.38202 5.51073H1.11368L1.02743 5.19006Z" fill="#68D2FF"/>
<path d="M2.56076 5.19006L2.47451 5.51073H2.20618L2.42659 5.71263L2.34034 6.03329L2.56076 5.83139L2.78118 6.03329L2.69493 5.71263L2.91534 5.51073H2.64701L2.56076 5.19006Z" fill="#68D2FF"/>
<path d="M4.09409 5.19006L4.00784 5.51073H3.7395L3.95992 5.71263L3.87367 6.03329L4.09409 5.83139L4.3145 6.03329L4.22825 5.71263L4.44867 5.51073H4.18034L4.09409 5.19006Z" fill="#68D2FF"/>
<path d="M5.62741 5.19006L5.54116 5.51073H5.27283L5.49324 5.71263L5.40699 6.03329L5.62741 5.83139L5.84783 6.03329L5.76158 5.71263L5.98199 5.51073H5.71366L5.62741 5.19006Z" fill="#68D2FF"/>
<path d="M7.16074 5.19006L7.07449 5.51073H6.80615L7.02657 5.71263L6.94032 6.03329L7.16074 5.83139L7.38115 6.03329L7.2949 5.71263L7.51532 5.51073H7.24699L7.16074 5.19006Z" fill="#68D2FF"/>
<path d="M8.69418 5.19006L8.60793 5.51073H8.3396L8.56002 5.71263L8.47377 6.03329L8.69418 5.83139L8.9146 6.03329L8.82835 5.71263L9.04877 5.51073H8.78043L8.69418 5.19006Z" fill="#68D2FF"/>
<path d="M1.11368 7.12596L1.02743 6.8053L0.941185 7.12596H0.672852L0.893268 7.32786L0.807018 7.64853L1.02743 7.44663L1.24785 7.64853L1.1616 7.32786L1.38202 7.12596H1.11368Z" fill="#68D2FF"/>
<path d="M2.64701 7.12596L2.56076 6.8053L2.47451 7.12596H2.20618L2.42659 7.32786L2.34034 7.64853L2.56076 7.44663L2.78118 7.64853L2.69493 7.32786L2.91534 7.12596H2.64701Z" fill="#68D2FF"/>
<path d="M4.18034 7.12596L4.09409 6.8053L4.00784 7.12596H3.7395L3.95992 7.32786L3.87367 7.64853L4.09409 7.44663L4.3145 7.64853L4.22825 7.32786L4.44867 7.12596H4.18034Z" fill="#68D2FF"/>
<path d="M5.71366 7.12596L5.62741 6.8053L5.54116 7.12596H5.27283L5.49324 7.32786L5.40699 7.64853L5.62741 7.44663L5.84783 7.64853L5.76158 7.32786L5.98199 7.12596H5.71366Z" fill="#68D2FF"/>
<path d="M7.24699 7.12596L7.16074 6.8053L7.07449 7.12596H6.80615L7.02657 7.32786L6.94032 7.64853L7.16074 7.44663L7.38115 7.64853L7.2949 7.32786L7.51532 7.12596H7.24699Z" fill="#68D2FF"/>
<path d="M8.78043 7.12596L8.69418 6.8053L8.60793 7.12596H8.3396L8.56002 7.32786L8.47377 7.64853L8.69418 7.44663L8.9146 7.64853L8.82835 7.32786L9.04877 7.12596H8.78043Z" fill="#68D2FF"/>
<path d="M1.79404 1.15204L1.70779 1.4727H1.43945L1.65987 1.6746L1.57362 1.99527L1.79404 1.79337L2.01445 1.99527L1.9282 1.6746L2.14862 1.4727H1.88029L1.79404 1.15204Z" fill="#68D2FF"/>
<path d="M3.32748 1.15204L3.24123 1.4727H2.9729L3.19332 1.6746L3.10707 1.99527L3.32748 1.79337L3.5479 1.99527L3.46165 1.6746L3.68207 1.4727H3.41373L3.32748 1.15204Z" fill="#68D2FF"/>
<path d="M4.86081 1.15204L4.77456 1.4727H4.50623L4.72664 1.6746L4.64039 1.99527L4.86081 1.79337L5.08123 1.99527L4.99498 1.6746L5.21539 1.4727H4.94706L4.86081 1.15204Z" fill="#68D2FF"/>
<path d="M6.39413 1.15204L6.30788 1.4727H6.03955L6.25997 1.6746L6.17372 1.99527L6.39413 1.79337L6.61455 1.99527L6.5283 1.6746L6.74872 1.4727H6.48038L6.39413 1.15204Z" fill="#68D2FF"/>
<path d="M7.92734 1.15204L7.84109 1.4727H7.57275L7.79317 1.6746L7.70692 1.99527L7.92734 1.79337L8.14775 1.99527L8.0615 1.6746L8.28192 1.4727H8.01359L7.92734 1.15204Z" fill="#68D2FF"/>
<path d="M1.79404 2.76727L1.70779 3.08794H1.43945L1.65987 3.28984L1.57362 3.6105L1.79404 3.4086L2.01445 3.6105L1.9282 3.28984L2.14862 3.08794H1.88029L1.79404 2.76727Z" fill="#68D2FF"/>
<path d="M3.32748 2.76727L3.24123 3.08794H2.9729L3.19332 3.28984L3.10707 3.6105L3.32748 3.4086L3.5479 3.6105L3.46165 3.28984L3.68207 3.08794H3.41373L3.32748 2.76727Z" fill="#68D2FF"/>
<path d="M4.86081 2.76727L4.77456 3.08794H4.50623L4.72664 3.28984L4.64039 3.6105L4.86081 3.4086L5.08123 3.6105L4.99498 3.28984L5.21539 3.08794H4.94706L4.86081 2.76727Z" fill="#68D2FF"/>
<path d="M6.39413 2.76727L6.30788 3.08794H6.03955L6.25997 3.28984L6.17372 3.6105L6.39413 3.4086L6.61455 3.6105L6.5283 3.28984L6.74872 3.08794H6.48038L6.39413 2.76727Z" fill="#68D2FF"/>
<path d="M7.92734 2.76727L7.84109 3.08794H7.57275L7.79317 3.28984L7.70692 3.6105L7.92734 3.4086L8.14775 3.6105L8.0615 3.28984L8.28192 3.08794H8.01359L7.92734 2.76727Z" fill="#68D2FF"/>
<path d="M1.79404 4.38245L1.70779 4.70311H1.43945L1.65987 4.90501L1.57362 5.22568L1.79404 5.02378L2.01445 5.22568L1.9282 4.90501L2.14862 4.70311H1.88029L1.79404 4.38245Z" fill="#68D2FF"/>
<path d="M3.32748 4.38245L3.24123 4.70311H2.9729L3.19332 4.90501L3.10707 5.22568L3.32748 5.02378L3.5479 5.22568L3.46165 4.90501L3.68207 4.70311H3.41373L3.32748 4.38245Z" fill="#68D2FF"/>
<path d="M4.86081 4.38245L4.77456 4.70311H4.50623L4.72664 4.90501L4.64039 5.22568L4.86081 5.02378L5.08123 5.22568L4.99498 4.90501L5.21539 4.70311H4.94706L4.86081 4.38245Z" fill="#68D2FF"/>
<path d="M6.39413 4.38245L6.30788 4.70311H6.03955L6.25997 4.90501L6.17372 5.22568L6.39413 5.02378L6.61455 5.22568L6.5283 4.90501L6.74872 4.70311H6.48038L6.39413 4.38245Z" fill="#68D2FF"/>
<path d="M7.92734 4.38245L7.84109 4.70311H7.57275L7.79317 4.90501L7.70692 5.22568L7.92734 5.02378L8.14775 5.22568L8.0615 4.90501L8.28192 4.70311H8.01359L7.92734 4.38245Z" fill="#68D2FF"/>
<path d="M1.88029 6.31828L1.79404 5.99762L1.70779 6.31828H1.43945L1.65987 6.52019L1.57362 6.84085L1.79404 6.63895L2.01445 6.84085L1.9282 6.52019L2.14862 6.31828H1.88029Z" fill="#68D2FF"/>
<path d="M3.41373 6.31828L3.32748 5.99762L3.24123 6.31828H2.9729L3.19332 6.52019L3.10707 6.84085L3.32748 6.63895L3.5479 6.84085L3.46165 6.52019L3.68207 6.31828H3.41373Z" fill="#68D2FF"/>
<path d="M4.94706 6.31828L4.86081 5.99762L4.77456 6.31828H4.50623L4.72664 6.52019L4.64039 6.84085L4.86081 6.63895L5.08123 6.84085L4.99498 6.52019L5.21539 6.31828H4.94706Z" fill="#68D2FF"/>
<path d="M6.48038 6.31828L6.39413 5.99762L6.30788 6.31828H6.03955L6.25997 6.52019L6.17372 6.84085L6.39413 6.63895L6.61455 6.84085L6.5283 6.52019L6.74872 6.31828H6.48038Z" fill="#68D2FF"/>
<path d="M8.01359 6.31828L7.92734 5.99762L7.84109 6.31828H7.57275L7.79317 6.52019L7.70692 6.84085L7.92734 6.63895L8.14775 6.84085L8.0615 6.52019L8.28192 6.31828H8.01359Z" fill="#68D2FF"/>
</svg>
