<svg width="22" height="22" viewBox="0 0 22 22" fill="none" xmlns="http://www.w3.org/2000/svg">
<path d="M1 5C1 3.11438 1 2.17157 1.58579 1.58579C2.17157 1 3.11438 1 5 1H17C18.8856 1 19.8284 1 20.4142 1.58579C21 2.17157 21 3.11438 21 5V17C21 18.8856 21 19.8284 20.4142 20.4142C19.8284 21 18.8856 21 17 21H5C3.11438 21 2.17157 21 1.58579 20.4142C1 19.8284 1 18.8856 1 17V5Z" stroke="white" stroke-width="2"/>
<path d="M1 5.44446H4.55556C5.53698 5.44446 6.02769 5.44446 6.44998 5.6556C6.87227 5.86675 7.1667 6.25932 7.75556 7.04446L8.68889 8.2889C9.27774 9.07404 9.57217 9.46661 9.99446 9.67776C10.4168 9.8889 10.9075 9.8889 11.8889 9.8889H17.6667C18.9128 9.8889 19.5359 9.8889 20 9.62095C20.304 9.44542 20.5565 9.19294 20.7321 8.8889C21 8.4248 21 7.80172 21 6.55557V6.55557" stroke="white" stroke-width="2"/>
<path d="M5.44434 15.4445H14.3332" stroke="white" stroke-width="2" stroke-linecap="round"/>
</svg>
