<svg width="23" height="15" viewBox="0 0 23 15" fill="none" xmlns="http://www.w3.org/2000/svg">
<path d="M23 0H0V15H23V0Z" fill="#68D2FF"/>
<rect width="23" height="15" fill="white"/>
<path d="M17.7909 11.7887L16.8181 13.2162L17.3524 13.5647L18.3252 12.1371L17.7909 11.7887Z" fill="black"/>
<path d="M16.9931 11.2774L16.0203 12.705L16.5545 13.0534L17.5274 11.6258L16.9931 11.2774Z" fill="black"/>
<path d="M16.1925 10.753L15.2197 12.1806L15.754 12.529L16.7268 11.1015L16.1925 10.753Z" fill="black"/>
<path d="M18.9439 10.1015L17.9711 11.5291L18.5053 11.8775L19.4781 10.4499L18.9439 10.1015Z" fill="black"/>
<path d="M18.1433 9.57707L17.1705 11.0046L17.7048 11.3531L18.6776 9.92549L18.1433 9.57707Z" fill="black"/>
<path d="M17.3454 9.06572L16.3726 10.4933L16.9068 10.8417L17.8796 9.41414L17.3454 9.06572Z" fill="black"/>
<path d="M5.65635 9.05484L5.12207 9.40326L7.24842 12.5236L7.7827 12.1752L5.65635 9.05484Z" fill="black"/>
<path d="M6.01194 11.265L5.47766 11.6134L6.45047 13.041L6.98474 12.6926L6.01194 11.265Z" fill="black"/>
<path d="M4.85508 9.58127L4.3208 9.92969L5.29361 11.3573L5.82788 11.0088L4.85508 9.58127Z" fill="black"/>
<path d="M4.0571 10.0985L3.52283 10.447L5.64918 13.5673L6.18345 13.2189L4.0571 10.0985Z" fill="black"/>
<path d="M18.5007 3.12045L17.9664 3.46887L18.9392 4.89644L19.4735 4.54802L18.5007 3.12045Z" fill="black"/>
<path d="M17.3518 1.43143L16.8175 1.77985L17.7903 3.20742L18.3246 2.859L17.3518 1.43143Z" fill="black"/>
<path d="M16.5538 1.94876L16.0195 2.29718L18.1459 5.41756L18.6802 5.06913L16.5538 1.94876Z" fill="black"/>
<path d="M16.9094 4.1589L16.3751 4.50732L17.3479 5.9349L17.8822 5.58647L16.9094 4.1589Z" fill="black"/>
<path d="M15.7605 2.46994L15.2262 2.81836L16.199 4.24593L16.7333 3.89751L15.7605 2.46994Z" fill="black"/>
<path d="M7.24463 2.47112L5.11829 5.59149L5.65256 5.93991L7.77891 2.81954L7.24463 2.47112Z" fill="black"/>
<path d="M6.45203 1.95195L4.32568 5.07233L4.85996 5.42075L6.98631 2.30037L6.45203 1.95195Z" fill="black"/>
<path d="M5.65137 1.4276L3.52502 4.54797L4.0593 4.89639L6.18565 1.77602L5.65137 1.4276Z" fill="black"/>
<path d="M8.3088 5.41876C7.13005 7.14376 7.60921 9.46876 9.37255 10.6219C11.1359 11.775 13.5125 11.3063 14.6913 9.58126C15.2759 8.71876 15.0363 7.55626 14.1642 6.98439C13.2825 6.41251 12.0942 6.64689 11.5096 7.50001C10.925 8.36251 9.73671 8.59689 8.85505 8.01564C7.97338 7.43439 7.72421 6.28126 8.3088 5.41876Z" fill="#003478"/>
<path d="M8.30888 5.4188C7.7243 6.2813 7.96388 7.4438 8.83596 8.01568C9.70805 8.58755 10.906 8.35318 11.4905 7.50005C12.0751 6.63755 13.2635 6.40318 14.1451 6.98443C15.0268 7.5563 15.2664 8.7188 14.6722 9.5813C15.851 7.8563 15.3718 5.5313 13.6085 4.37818C11.8451 3.22505 9.48763 3.6938 8.30888 5.4188Z" fill="#C60C30"/>
</svg>
