<svg width="24" height="24" viewBox="0 0 24 24" fill="none" xmlns="http://www.w3.org/2000/svg">
<g clip-path="url(#clip0_93_649)">
<path d="M21.4829 12.6731C22.8194 10.7046 21.407 8.01049 19.009 8.01049C16.6117 8.01049 15.1989 10.7037 16.5346 12.6723C16.0759 12.9346 15.6769 13.2571 15.333 13.6316C14.4911 12.7951 13.485 12.124 12.3681 11.6708C13.3625 10.7578 13.9869 9.44795 13.9869 7.99486C13.9869 5.24292 11.748 3.00403 8.99606 3.00403C6.24411 3.00403 4.00518 5.24287 4.00518 7.99486C4.00518 9.44799 4.62957 10.7579 5.62395 11.6708C2.32952 13.0077 0 16.2419 0 20.0104C0 20.5548 0.441291 20.9961 0.985653 20.9961C1.53002 20.9961 1.97131 20.5548 1.97131 20.0104C1.97131 16.137 5.12258 12.9857 8.99606 12.9857C12.8695 12.9857 16.0208 16.137 16.0208 20.0104C16.0208 20.5548 16.4621 20.9961 17.0065 20.9961C17.5508 20.9961 17.9921 20.5548 17.9921 20.0104C17.9921 18.2406 17.4781 16.5886 16.5918 15.1955C17.5703 13.8823 19.071 13.987 19.0122 13.987C20.6758 13.9888 22.0288 15.3427 22.0288 17.0067V20.0105C22.0288 20.5549 22.4701 20.9961 23.0144 20.9961C23.5588 20.9961 24.0001 20.5549 24.0001 20.0105V17.0067C24 15.1542 22.9855 13.5342 21.4829 12.6731V12.6731ZM5.97649 7.99486C5.97649 6.3299 7.33105 4.97533 8.99601 4.97533C10.661 4.97533 12.0156 6.3299 12.0156 7.99486C12.0156 9.65986 10.661 11.0144 8.99606 11.0144C7.3311 11.0144 5.97649 9.65982 5.97649 7.99486ZM17.9921 10.9988C17.9921 10.438 18.4483 9.9818 19.009 9.9818C19.5698 9.9818 20.026 10.438 20.026 10.9988C20.026 11.5571 19.5723 12.0156 19.0089 12.0156C18.4511 12.0155 17.9921 11.5623 17.9921 10.9988V10.9988Z" fill="#08164B"/>
</g>
<defs>
<clipPath id="clip0_93_649">
<rect width="24" height="24" fill="white"/>
</clipPath>
</defs>
</svg>
